<svg width="100" height="100" viewBox="0 0 100 100" fill="none" xmlns="http://www.w3.org/2000/svg">
<circle cx="50" cy="50" r="50" fill="#FF0000"/>
<path fill-rule="evenodd" clip-rule="evenodd" d="M0 50C27.6142 50 50 72.3858 50 100C22.3858 100 0 77.6142 0 50Z" fill="#FF7700"/>
<path fill-rule="evenodd" clip-rule="evenodd" d="M50 0C50 27.6142 27.6142 50 0 50C0 22.3858 22.3858 0 50 0Z" fill="#00FFFF"/>
<path fill-rule="evenodd" clip-rule="evenodd" d="M100 50C72.3858 50 50 27.6142 50 0C77.6142 0 100 22.3858 100 50Z" fill="#00FF00"/>
<path fill-rule="evenodd" clip-rule="evenodd" d="M50 100C77.6142 100 100 77.6142 100 50C72.3858 50 50 72.3858 50 100Z" fill="#FFFF00"/>
</svg>
