<svg width="57" height="73" viewBox="0 0 57 73" fill="none" xmlns="http://www.w3.org/2000/svg">
<path d="M0.264382 73V0.272725H29.3837C34.7341 0.272725 39.1967 1.06581 42.7715 2.65199C46.3463 4.23816 49.0333 6.43987 50.8326 9.2571C52.6318 12.0507 53.5314 15.2704 53.5314 18.9162C53.5314 21.7571 52.9632 24.2547 51.8269 26.4091C50.6905 28.5398 49.128 30.2917 47.1394 31.6648C45.1744 33.0142 42.9254 33.973 40.3922 34.5412V35.2514C43.1621 35.3698 45.7544 36.151 48.1692 37.5952C50.6077 39.0393 52.5845 41.0634 54.0996 43.6676C55.6148 46.2481 56.3723 49.3258 56.3723 52.9006C56.3723 56.7595 55.4135 60.2041 53.4959 63.2344C51.602 66.241 48.7966 68.6203 45.0797 70.3722C41.3629 72.1241 36.7819 73 31.3368 73H0.264382ZM15.6408 60.429H28.1763C32.4614 60.429 35.5864 59.6122 37.5513 57.9787C39.5163 56.3215 40.4988 54.1198 40.4988 51.3736C40.4988 49.3613 40.0134 47.5857 39.0428 46.0469C38.0721 44.508 36.6872 43.3007 34.888 42.4247C33.1124 41.5488 30.9935 41.1108 28.5314 41.1108H15.6408V60.429ZM15.6408 30.706H27.04C29.147 30.706 31.0172 30.339 32.6507 29.6051C34.3079 28.8475 35.61 27.7822 36.557 26.4091C37.5276 25.036 38.013 23.3906 38.013 21.473C38.013 18.8452 37.0778 16.7263 35.2076 15.1165C33.361 13.5066 30.7331 12.7017 27.324 12.7017H15.6408V30.706Z" fill="#FF7700"/>
</svg>
