<svg width="16" height="16" viewBox="0 0 16 16" fill="none" xmlns="http://www.w3.org/2000/svg">
<mask id="mask0_3_1238" style="mask-type:alpha" maskUnits="userSpaceOnUse" x="0" y="0" width="16" height="16">
<path fill-rule="evenodd" clip-rule="evenodd" d="M4.66681 7.33281C4.66681 6.96481 4.96548 6.66614 5.33348 6.66614C5.70148 6.66614 6.00014 6.96481 6.00014 7.33281C6.00014 7.70081 5.70148 7.99947 5.33348 7.99947C4.96548 7.99947 4.66681 7.70081 4.66681 7.33281ZM8.00014 6.66614C7.63214 6.66614 7.33348 6.96481 7.33348 7.33281C7.33348 7.70081 7.63214 7.99947 8.00014 7.99947C8.36814 7.99947 8.66681 7.70081 8.66681 7.33281C8.66681 6.96481 8.36814 6.66614 8.00014 6.66614ZM10.6668 6.66614C10.2988 6.66614 10.0001 6.96481 10.0001 7.33281C10.0001 7.70081 10.2988 7.99947 10.6668 7.99947C11.0348 7.99947 11.3335 7.70081 11.3335 7.33281C11.3335 6.96481 11.0348 6.66614 10.6668 6.66614ZM13.2657 8.19607C12.9277 10.3654 11.1791 12.1647 9.01308 12.5707C7.96708 12.7681 6.90174 12.6554 5.93508 12.2461C5.66108 12.1301 5.37774 12.0714 5.09974 12.0714C4.97308 12.0714 4.84774 12.0834 4.72441 12.1081L2.84974 12.4827L3.22508 10.6047C3.30374 10.2147 3.25574 9.79741 3.08708 9.39807C2.67774 8.43141 2.56574 7.36674 2.76241 6.32007C3.16841 4.15407 4.96708 2.40541 7.13708 2.06741C8.86374 1.79874 10.5524 2.34274 11.7711 3.56141C12.9904 4.78074 13.5351 6.47007 13.2657 8.19607ZM12.7144 2.61874C11.1911 1.09607 9.08441 0.41674 6.93174 0.749407C4.21374 1.17341 1.96041 3.36274 1.45174 6.07407C1.20641 7.37941 1.34774 8.70874 1.85908 9.91741C1.92374 10.0714 1.94374 10.2147 1.91841 10.3434L1.34641 13.2021C1.30241 13.4207 1.37108 13.6467 1.52908 13.8041C1.65508 13.9307 1.82508 13.9994 2.00041 13.9994C2.04374 13.9994 2.08708 13.9954 2.13108 13.9867L4.98641 13.4154C5.15041 13.3841 5.30908 13.4301 5.41508 13.4741C6.62508 13.9854 7.95441 14.1261 9.25841 13.8814C11.9704 13.3727 14.1597 11.1194 14.5837 8.40141C14.9184 6.25007 14.2377 4.14207 12.7144 2.61874Z" fill="#071435"/>
</mask>
<g mask="url(#mask0_3_1238)">
<rect width="16" height="16" fill="#1551E5"/>
</g>
</svg>
