<svg width="16" height="16" viewBox="0 0 16 16" fill="none" xmlns="http://www.w3.org/2000/svg">
<mask id="mask0_3_1252" style="mask-type:alpha" maskUnits="userSpaceOnUse" x="0" y="0" width="16" height="16">
<path fill-rule="evenodd" clip-rule="evenodd" d="M13.1598 2.8405C12.9284 2.6085 12.5531 2.6085 12.3218 2.8405L2.84044 12.3218C2.72444 12.4378 2.66644 12.5892 2.66644 12.7412C2.66644 12.8925 2.72444 13.0445 2.84044 13.1598C3.07178 13.3912 3.44644 13.3912 3.67844 13.1598L13.1598 3.6785C13.3911 3.4465 13.3911 3.07184 13.1598 2.8405ZM10.6666 12.6667C10.1153 12.6667 9.66664 12.218 9.66664 11.6667C9.66664 11.1154 10.1153 10.6667 10.6666 10.6667C11.218 10.6667 11.6666 11.1154 11.6666 11.6667C11.6666 12.218 11.218 12.6667 10.6666 12.6667ZM10.6666 9.33337C9.37998 9.33337 8.33331 10.38 8.33331 11.6667C8.33331 12.9534 9.37998 14 10.6666 14C11.9533 14 13 12.9534 13 11.6667C13 10.38 11.9533 9.33337 10.6666 9.33337ZM5.33331 4.00004C5.88464 4.00004 6.33331 4.4487 6.33331 5.00004C6.33331 5.55137 5.88464 6.00004 5.33331 6.00004C4.78198 6.00004 4.33331 5.55137 4.33331 5.00004C4.33331 4.4487 4.78198 4.00004 5.33331 4.00004ZM5.33331 7.33337C6.61998 7.33337 7.66664 6.2867 7.66664 5.00004C7.66664 3.71337 6.61998 2.6667 5.33331 2.6667C4.04664 2.6667 2.99998 3.71337 2.99998 5.00004C2.99998 6.2867 4.04664 7.33337 5.33331 7.33337Z" fill="#071435"/>
</mask>
<g mask="url(#mask0_3_1252)">
<rect width="16" height="16" fill="#1551E5"/>
</g>
</svg>
