<svg width="2000" height="1000" viewBox="0 0 2000 1000" fill="none" xmlns="http://www.w3.org/2000/svg">
<path d="M200 471L243.301 546H156.699L200 471Z" fill="#FFFF00"/>
<path d="M287 463L298.226 497.549H334.553L305.164 518.902L316.389 553.451L287 532.098L257.611 553.451L268.836 518.902L239.447 497.549H275.774L287 463Z" fill="#FF00FF"/>
<circle cx="1821" cy="571" r="50" fill="#0000FF"/>
<circle cx="1321" cy="571" r="50" fill="#0000FF"/>
<path d="M821 521C830.889 521 840.556 523.932 848.779 529.427C857.001 534.921 863.41 542.73 867.194 551.866C870.978 561.002 871.969 571.055 870.039 580.755C868.11 590.454 863.348 599.363 856.355 606.355C849.363 613.348 840.454 618.11 830.754 620.039C821.055 621.969 811.002 620.978 801.866 617.194C792.729 613.41 784.921 607.001 779.426 598.778C773.932 590.556 771 580.889 771 571L821 571L821 521Z" fill="#0000FF"/>
<path d="M337 536C346.889 536 356.556 538.932 364.779 544.427C373.001 549.921 379.41 557.73 383.194 566.866C386.978 576.002 387.969 586.055 386.039 595.755C384.11 605.454 379.348 614.363 372.355 621.355C365.363 628.348 356.454 633.11 346.754 635.039C337.055 636.969 327.002 635.978 317.866 632.194C308.729 628.41 300.921 622.001 295.426 613.778C289.932 605.556 287 595.889 287 586L337 586L337 536Z" fill="#0000FF"/>
<rect x="1690" y="360" width="100" height="100" fill="#FF8800"/>
<rect x="1271" y="395" width="100" height="100" fill="#FF8800"/>
<path d="M796 420V395H821H846V420H871V445V470H846V495H821H796V470H771V445V420H796Z" fill="#FF8800"/>
<path d="M308 383V358H333H358V383H383V408V433H358V458H333H308V433H283V408V383H308Z" fill="#FF8800"/>
<rect x="1680" y="370" width="100" height="100" fill="#00FF00"/>
<rect x="1129" y="395" width="100" height="100" fill="#00FF00"/>
<path d="M629 420L654 395H679H704L729 420V445V470L704 495H679H654L629 470V445V420Z" fill="#00FF00"/>
<path d="M126 383L151 358H176H201L226 383V408V433L201 458H176H151L126 433V408V383Z" fill="#00FF00"/>
<path d="M1629 521L1729 621H1629V521Z" fill="#FF0000"/>
<path d="M1129 521L1229 621H1129V521Z" fill="#FF0000"/>
<path d="M629 521L654 546V596H704L729 621H629V521Z" fill="#FF0000"/>
<path d="M117 518L142 543V593H192L217 618H117V518Z" fill="#FF0000"/>
<path d="M1450 500C1450 610.457 1360.46 700 1250 700C1139.54 700 1050 610.457 1050 500C1050 389.543 1139.54 300 1250 300C1360.46 300 1450 389.543 1450 500ZM1060 500C1060 604.934 1145.07 690 1250 690C1354.93 690 1440 604.934 1440 500C1440 395.066 1354.93 310 1250 310C1145.07 310 1060 395.066 1060 500Z" fill="#FFFF00"/>
<path d="M1950 500C1950 610.457 1860.46 700 1750 700C1639.54 700 1550 610.457 1550 500C1550 389.543 1639.54 300 1750 300C1860.46 300 1950 389.543 1950 500ZM1560 500C1560 604.934 1645.07 690 1750 690C1854.93 690 1940 604.934 1940 500C1940 395.066 1854.93 310 1750 310C1645.07 310 1560 395.066 1560 500Z" fill="#00FF00"/>
<path d="M950 500C950 610.457 860.457 700 750 700C639.543 700 550 610.457 550 500C550 389.543 639.543 300 750 300C860.457 300 950 389.543 950 500ZM560 500C560 604.934 645.066 690 750 690C854.934 690 940 604.934 940 500C940 395.066 854.934 310 750 310C645.066 310 560 395.066 560 500Z" fill="#FF8800"/>
<path d="M450 500C450 610.457 360.457 700 250 700C139.543 700 50 610.457 50 500C50 389.543 139.543 300 250 300C360.457 300 450 389.543 450 500ZM60 500C60 604.934 145.066 690 250 690C354.934 690 440 604.934 440 500C440 395.066 354.934 310 250 310C145.066 310 60 395.066 60 500Z" fill="#FF0000"/>
<path d="M550.707 495.707C551.098 495.317 551.098 494.683 550.707 494.293L544.343 487.929C543.953 487.538 543.319 487.538 542.929 487.929C542.538 488.319 542.538 488.953 542.929 489.343L548.586 495L542.929 500.657C542.538 501.047 542.538 501.681 542.929 502.071C543.319 502.462 543.953 502.462 544.343 502.071L550.707 495.707ZM450 496L550 496L550 494L450 494L450 496Z" fill="black"/>
<path d="M1050.71 495.707C1051.1 495.317 1051.1 494.683 1050.71 494.293L1044.34 487.929C1043.95 487.538 1043.32 487.538 1042.93 487.929C1042.54 488.319 1042.54 488.953 1042.93 489.343L1048.59 495L1042.93 500.657C1042.54 501.047 1042.54 501.681 1042.93 502.071C1043.32 502.462 1043.95 502.462 1044.34 502.071L1050.71 495.707ZM950 496L1050 496L1050 494L950 494L950 496Z" fill="black"/>
<path d="M1550.71 495.707C1551.1 495.317 1551.1 494.683 1550.71 494.293L1544.34 487.929C1543.95 487.538 1543.32 487.538 1542.93 487.929C1542.54 488.319 1542.54 488.953 1542.93 489.343L1548.59 495L1542.93 500.657C1542.54 501.047 1542.54 501.681 1542.93 502.071C1543.32 502.462 1543.95 502.462 1544.34 502.071L1550.71 495.707ZM1450 496L1550 496L1550 494L1450 494L1450 496Z" fill="black"/>
<path d="M405.636 733.455H412.091L425 755.182H425.545L438.455 733.455H444.909L428.091 760.818V780H422.455V760.818L405.636 733.455ZM449.358 780H443.449L460.54 733.455H466.358L483.449 780H477.54L463.631 740.818H463.267L449.358 780ZM451.54 761.818H475.358V766.818H451.54V761.818ZM520.33 748C519.83 746.47 519.17 745.098 518.352 743.886C517.549 742.659 516.587 741.614 515.466 740.75C514.36 739.886 513.102 739.227 511.693 738.773C510.284 738.318 508.739 738.091 507.057 738.091C504.299 738.091 501.792 738.803 499.534 740.227C497.277 741.652 495.481 743.75 494.148 746.523C492.814 749.295 492.148 752.697 492.148 756.727C492.148 760.758 492.822 764.159 494.17 766.932C495.519 769.705 497.345 771.803 499.648 773.227C501.951 774.652 504.542 775.364 507.42 775.364C510.087 775.364 512.436 774.795 514.466 773.659C516.511 772.508 518.102 770.886 519.239 768.795C520.39 766.689 520.966 764.212 520.966 761.364L522.693 761.727H508.693V756.727H526.42V761.727C526.42 765.561 525.602 768.894 523.966 771.727C522.345 774.561 520.102 776.758 517.239 778.318C514.39 779.864 511.117 780.636 507.42 780.636C503.299 780.636 499.678 779.667 496.557 777.727C493.451 775.788 491.027 773.03 489.284 769.455C487.557 765.879 486.693 761.636 486.693 756.727C486.693 753.045 487.186 749.735 488.17 746.795C489.17 743.841 490.58 741.326 492.398 739.25C494.216 737.174 496.367 735.583 498.852 734.477C501.337 733.371 504.072 732.818 507.057 732.818C509.511 732.818 511.799 733.189 513.92 733.932C516.057 734.659 517.958 735.697 519.625 737.045C521.307 738.379 522.708 739.977 523.83 741.841C524.951 743.689 525.723 745.742 526.148 748H520.33ZM572.983 733.455V780H567.528L542.165 743.455H541.71V780H536.074V733.455H541.528L566.983 770.091H567.438V733.455H572.983ZM589.898 733.455V780H584.261V733.455H589.898Z" fill="black"/>
<path d="M1424 780H1409.64V733.455H1424.64C1429.15 733.455 1433.02 734.386 1436.23 736.25C1439.44 738.098 1441.9 740.758 1443.61 744.227C1445.33 747.682 1446.18 751.818 1446.18 756.636C1446.18 761.485 1445.32 765.659 1443.59 769.159C1441.86 772.644 1439.35 775.326 1436.05 777.205C1432.74 779.068 1428.73 780 1424 780ZM1415.27 775H1423.64C1427.48 775 1430.67 774.258 1433.2 772.773C1435.73 771.288 1437.62 769.174 1438.86 766.432C1440.11 763.689 1440.73 760.424 1440.73 756.636C1440.73 752.879 1440.11 749.644 1438.89 746.932C1437.66 744.205 1435.83 742.114 1433.39 740.659C1430.95 739.189 1427.91 738.455 1424.27 738.455H1415.27V775ZM1455.64 780V733.455H1471.36C1475 733.455 1477.98 734.076 1480.32 735.318C1482.65 736.545 1484.38 738.235 1485.5 740.386C1486.62 742.538 1487.18 744.985 1487.18 747.727C1487.18 750.47 1486.62 752.902 1485.5 755.023C1484.38 757.144 1482.66 758.811 1480.34 760.023C1478.02 761.22 1475.06 761.818 1471.45 761.818H1458.73V756.727H1471.27C1473.76 756.727 1475.76 756.364 1477.27 755.636C1478.8 754.909 1479.91 753.879 1480.59 752.545C1481.29 751.197 1481.64 749.591 1481.64 747.727C1481.64 745.864 1481.29 744.235 1480.59 742.841C1479.89 741.447 1478.78 740.371 1477.25 739.614C1475.72 738.841 1473.7 738.455 1471.18 738.455H1461.27V780H1455.64ZM1477.55 759.091L1489 780H1482.45L1471.18 759.091H1477.55ZM1491.01 733.455H1497.47L1510.38 755.182H1510.92L1523.83 733.455H1530.28L1513.47 760.818V780H1507.83V760.818L1491.01 733.455Z" fill="black"/>
<path d="M909.636 780V733.455H915.273V756.545H915.818L936.727 733.455H944.091L924.545 754.455L944.091 780H937.273L921.091 758.364L915.273 764.909V780H909.636ZM957.023 733.455V780H951.386V733.455H957.023ZM993.778 745.091C993.506 742.788 992.4 741 990.46 739.727C988.521 738.455 986.142 737.818 983.324 737.818C981.263 737.818 979.46 738.152 977.915 738.818C976.384 739.485 975.188 740.402 974.324 741.568C973.475 742.735 973.051 744.061 973.051 745.545C973.051 746.788 973.347 747.856 973.938 748.75C974.544 749.629 975.316 750.364 976.256 750.955C977.195 751.53 978.18 752.008 979.21 752.386C980.241 752.75 981.188 753.045 982.051 753.273L986.778 754.545C987.991 754.864 989.339 755.303 990.824 755.864C992.324 756.424 993.756 757.189 995.119 758.159C996.498 759.114 997.634 760.341 998.528 761.841C999.422 763.341 999.869 765.182 999.869 767.364C999.869 769.879 999.21 772.152 997.892 774.182C996.589 776.212 994.68 777.826 992.165 779.023C989.665 780.22 986.627 780.818 983.051 780.818C979.718 780.818 976.831 780.28 974.392 779.205C971.968 778.129 970.059 776.629 968.665 774.705C967.286 772.78 966.506 770.545 966.324 768H972.142C972.294 769.758 972.884 771.212 973.915 772.364C974.96 773.5 976.278 774.348 977.869 774.909C979.475 775.455 981.203 775.727 983.051 775.727C985.203 775.727 987.134 775.379 988.847 774.682C990.559 773.97 991.915 772.985 992.915 771.727C993.915 770.455 994.415 768.97 994.415 767.273C994.415 765.727 993.983 764.47 993.119 763.5C992.256 762.53 991.119 761.742 989.71 761.136C988.301 760.53 986.778 760 985.142 759.545L979.415 757.909C975.778 756.864 972.9 755.371 970.778 753.432C968.657 751.492 967.597 748.955 967.597 745.818C967.597 743.212 968.301 740.939 969.71 739C971.134 737.045 973.044 735.53 975.438 734.455C977.847 733.364 980.536 732.818 983.506 732.818C986.506 732.818 989.172 733.356 991.506 734.432C993.839 735.492 995.688 736.947 997.051 738.795C998.43 740.644 999.157 742.742 999.233 745.091H993.778ZM1034.59 745.091C1034.32 742.788 1033.21 741 1031.27 739.727C1029.33 738.455 1026.95 737.818 1024.14 737.818C1022.08 737.818 1020.27 738.152 1018.73 738.818C1017.2 739.485 1016 740.402 1015.14 741.568C1014.29 742.735 1013.86 744.061 1013.86 745.545C1013.86 746.788 1014.16 747.856 1014.75 748.75C1015.36 749.629 1016.13 750.364 1017.07 750.955C1018.01 751.53 1018.99 752.008 1020.02 752.386C1021.05 752.75 1022 753.045 1022.86 753.273L1027.59 754.545C1028.8 754.864 1030.15 755.303 1031.64 755.864C1033.14 756.424 1034.57 757.189 1035.93 758.159C1037.31 759.114 1038.45 760.341 1039.34 761.841C1040.23 763.341 1040.68 765.182 1040.68 767.364C1040.68 769.879 1040.02 772.152 1038.7 774.182C1037.4 776.212 1035.49 777.826 1032.98 779.023C1030.48 780.22 1027.44 780.818 1023.86 780.818C1020.53 780.818 1017.64 780.28 1015.2 779.205C1012.78 778.129 1010.87 776.629 1009.48 774.705C1008.1 772.78 1007.32 770.545 1007.14 768H1012.95C1013.11 769.758 1013.7 771.212 1014.73 772.364C1015.77 773.5 1017.09 774.348 1018.68 774.909C1020.29 775.455 1022.02 775.727 1023.86 775.727C1026.02 775.727 1027.95 775.379 1029.66 774.682C1031.37 773.97 1032.73 772.985 1033.73 771.727C1034.73 770.455 1035.23 768.97 1035.23 767.273C1035.23 765.727 1034.8 764.47 1033.93 763.5C1033.07 762.53 1031.93 761.742 1030.52 761.136C1029.11 760.53 1027.59 760 1025.95 759.545L1020.23 757.909C1016.59 756.864 1013.71 755.371 1011.59 753.432C1009.47 751.492 1008.41 748.955 1008.41 745.818C1008.41 743.212 1009.11 740.939 1010.52 739C1011.95 737.045 1013.86 735.53 1016.25 734.455C1018.66 733.364 1021.35 732.818 1024.32 732.818C1027.32 732.818 1029.98 733.356 1032.32 734.432C1034.65 735.492 1036.5 736.947 1037.86 738.795C1039.24 740.644 1039.97 742.742 1040.05 745.091H1034.59Z" fill="black"/>
</svg>
